# xmcd CD database file
# Copyright (C) 1996 Ti Kan
#
# Track frame offsets:
#  150
#  14295
#  26657
#  37757
#  50857
#  62482
#  74345
#  86795
#  99827
#  111760
#  123060
#  134835
#  146547
#  156535
#  166747
#  177184
#  188785
#  200385
#  211885
#  223622
#  237685
#  247520
#  257584
#  269590
#  282080
#
# Disc length: 3924 seconds
#
# Revision: 1
# Processed by: cddbd v1.4b41PL1 Copyright (c) Steve Scherf et al.
# Submitted via: CDWizzard Release:4.10
#
DISCID=690f5219
DTITLE=Eddie Arnold - Eddie Arnold: Legendary Country Singers
DYEAR=1900
DGENRE=
TTITLE0=That's How Much I Love You
TTITLE1=I'll Hold You in My Heart (Till I Can Hold Yoy in My Arms)
TTITLE2=It's a Sin
TTITLE3=Anytime
TTITLE4=Bouquet of Roses
TTITLE5=Don't Rob Another Man's Castle
TTITLE6=Just a Little Lovin'  (Will Go a Long, Long Way)
TTITLE7=Take Me in You Arms and Hold Me
TTITLE8=I'm Throwing Rice (At the Girl I Love)
TTITLE9=A Full Time Job
TTITLE10=Easy on the Eyes
TTITLE11=I Really Don't Want to Know
TTITLE12=I Wanna Play House with You
TTITLE13=There's Been a Change in Me
TTITLE14=One Kiss Too Many
TTITLE15=Kentucky Waltz
TTITLE16=Trouble in Mind
TTITLE17=The Cattle Call
TTITLE18=You Don't Know Me
TTITLE19=Tennessee Stud
TTITLE20=What's He Doing in My World
TTITLE21=The Last Word in Lonesome Is Me
TTITLE22=Make the World Go Away
TTITLE23=Lonely Again
TTITLE24=The End of the World
EXTD=
EXTT0=Eddie Arnold
EXTT1=Eddie Arnold
EXTT2=Eddie Arnold
EXTT3=Eddie Arnold
EXTT4=Eddie Arnold
EXTT5=Eddie Arnold
EXTT6=Eddie Arnold
EXTT7=Eddie Arnold
EXTT8=Eddie Arnold
EXTT9=Eddie Arnold
EXTT10=Eddie Arnold
EXTT11=Eddie Arnold
EXTT12=Eddie Arnold
EXTT13=Eddie Arnold
EXTT14=Eddie Arnold
EXTT15=Eddie Arnold
EXTT16=Eddie Arnold
EXTT17=Eddie Arnold
EXTT18=Eddie Arnold
EXTT19=Eddie Arnold
EXTT20=Eddie Arnold
EXTT21=Eddie Arnold
EXTT22=Eddie Arnold
EXTT23=Eddie Arnold
EXTT24=Eddie Arnold
PLAYORDER=
